<?xml version="1.0" encoding="UTF-8"?>
<svg version="1.1" xmlns="http://www.w3.org/2000/svg" width="400" height="400">
<path d="M0 0 C28.40029098 -0.09376065 56.80055851 -0.16413393 85.20097351 -0.20724869 C98.39005735 -0.22780655 111.5790446 -0.25579652 124.76806641 -0.30175781 C136.27390933 -0.34183416 147.77968224 -0.36748194 159.28559303 -0.37635398 C165.36854353 -0.38153373 171.45129384 -0.39356421 177.53417969 -0.42292023 C183.27975859 -0.45041922 189.02505817 -0.45837662 194.77069664 -0.45243073 C196.86018081 -0.45351576 198.94967604 -0.46126134 201.03910255 -0.4768219 C252.1759276 -0.83841501 300.97284382 18.78424427 338 54 C338.55413574 54.52158691 339.10827148 55.04317383 339.67919922 55.58056641 C371.91010831 86.09642041 392.8239141 126.99538796 399 171 C399.1743457 172.22468994 399.34869141 173.44937988 399.52832031 174.71118164 C400.07555692 179.16073801 400.17911296 183.56754897 400.203125 188.046875 C400.20882507 188.89815979 400.21452515 189.74944458 400.22039795 190.62652588 C400.22979769 192.42499573 400.2363618 194.22348241 400.24023438 196.02197266 C400.24982522 198.70117646 400.28084829 201.37957313 400.3125 204.05859375 C400.41232954 220.18436186 398.53110906 235.90839838 394.3125 251.5 C394.05686279 252.45374512 393.80122559 253.40749023 393.5378418 254.39013672 C379.81550812 303.74145659 346.1666724 347.30053802 301.80859375 372.87890625 C254.67482404 399.41518216 199.48892378 407.95557614 146.87109375 393.44140625 C105.60943605 381.47294718 68.49004645 358.20345432 42 324 C41.5654248 323.44183594 41.13084961 322.88367188 40.68310547 322.30859375 C33.50024075 313.02062659 27.38035007 303.43396789 22 293 C21.62101562 292.26797363 21.24203125 291.53594727 20.8515625 290.78173828 C8.25069469 266.12441936 -0.21808328 238.4345375 -0.12025452 210.56565857 C-0.12110894 209.65958723 -0.12196337 208.75351588 -0.12284368 207.81998783 C-0.12448054 204.80762426 -0.1190067 201.79531736 -0.11352539 198.78295898 C-0.11324311 196.61417136 -0.11340206 194.44538364 -0.1139679 192.27659607 C-0.11425425 186.40540703 -0.10838357 180.53423851 -0.10139394 174.66305423 C-0.09513356 168.52114386 -0.09455448 162.37923301 -0.09336853 156.23731995 C-0.09026313 144.61409468 -0.0820604 132.99087884 -0.07201904 121.36765772 C-0.06083334 108.13191007 -0.05534126 94.89616196 -0.05032361 81.66041076 C-0.03987713 54.44026862 -0.022293 27.22013484 0 0 Z " fill="#FEFEFE" transform="translate(0,0)"/>
<path d="M0 0 C28.40029098 -0.09376065 56.80055851 -0.16413393 85.20097351 -0.20724869 C98.39005735 -0.22780655 111.5790446 -0.25579652 124.76806641 -0.30175781 C136.27390933 -0.34183416 147.77968224 -0.36748194 159.28559303 -0.37635398 C165.36854353 -0.38153373 171.45129384 -0.39356421 177.53417969 -0.42292023 C183.27975859 -0.45041922 189.02505817 -0.45837662 194.77069664 -0.45243073 C196.86018081 -0.45351576 198.94967604 -0.46126134 201.03910255 -0.4768219 C252.1759276 -0.83841501 300.97284382 18.78424427 338 54 C338.55413574 54.52158691 339.10827148 55.04317383 339.67919922 55.58056641 C371.91010831 86.09642041 392.8239141 126.99538796 399 171 C399.1743457 172.22468994 399.34869141 173.44937988 399.52832031 174.71118164 C400.07555692 179.16073801 400.17911296 183.56754897 400.203125 188.046875 C400.20882507 188.89815979 400.21452515 189.74944458 400.22039795 190.62652588 C400.22979769 192.42499573 400.2363618 194.22348241 400.24023438 196.02197266 C400.24982522 198.70117646 400.28084829 201.37957313 400.3125 204.05859375 C400.41232954 220.18436186 398.53110906 235.90839838 394.3125 251.5 C394.05686279 252.45374512 393.80122559 253.40749023 393.5378418 254.39013672 C379.81550812 303.74145659 346.1666724 347.30053802 301.80859375 372.87890625 C254.67482404 399.41518216 199.48892378 407.95557614 146.87109375 393.44140625 C105.60943605 381.47294718 68.49004645 358.20345432 42 324 C41.5654248 323.44183594 41.13084961 322.88367188 40.68310547 322.30859375 C33.50024075 313.02062659 27.38035007 303.43396789 22 293 C21.62101562 292.26797363 21.24203125 291.53594727 20.8515625 290.78173828 C8.25069469 266.12441936 -0.21808328 238.4345375 -0.12025452 210.56565857 C-0.12110894 209.65958723 -0.12196337 208.75351588 -0.12284368 207.81998783 C-0.12448054 204.80762426 -0.1190067 201.79531736 -0.11352539 198.78295898 C-0.11324311 196.61417136 -0.11340206 194.44538364 -0.1139679 192.27659607 C-0.11425425 186.40540703 -0.10838357 180.53423851 -0.10139394 174.66305423 C-0.09513356 168.52114386 -0.09455448 162.37923301 -0.09336853 156.23731995 C-0.09026313 144.61409468 -0.0820604 132.99087884 -0.07201904 121.36765772 C-0.06083334 108.13191007 -0.05534126 94.89616196 -0.05032361 81.66041076 C-0.03987713 54.44026862 -0.022293 27.22013484 0 0 Z M98 80 C97.17242187 80.70640625 96.34484375 81.4128125 95.4921875 82.140625 C83.67030504 92.44308056 74.40052018 103.83962395 66 117 C65.44119141 117.86963379 65.44119141 117.86963379 64.87109375 118.75683594 C44.36247741 151.16574718 37.27150568 193.49076495 45.50390625 230.88525391 C52.75995996 261.81632539 66.9932125 288.16014799 89 311 C89.88558594 311.96292969 89.88558594 311.96292969 90.7890625 312.9453125 C111.41182778 334.7871575 141.10978043 347.92476379 170 354 C170.77690186 354.18095215 171.55380371 354.3619043 172.35424805 354.54833984 C181.11593306 356.41231511 189.89856949 356.40020781 198.8125 356.375 C199.63391479 356.37345917 200.45532959 356.37191833 201.30163574 356.37033081 C243.11479706 356.18374662 281.08298618 340.20576238 311 311 C311.77472656 310.28714844 312.54945313 309.57429688 313.34765625 308.83984375 C340.05090526 283.64365641 356.18004246 243.82482063 357.27734375 207.5546875 C357.56879622 193.47721038 357.17925267 179.7620428 354 166 C353.7834375 164.94941406 353.566875 163.89882812 353.34375 162.81640625 C347.46473339 136.46581396 333.2574097 111.64839309 315 92 C314.53980469 91.50129395 314.07960938 91.00258789 313.60546875 90.48876953 C303.18472824 79.31350134 291.27148049 70.51847634 278 63 C277.42507813 62.67290039 276.85015625 62.34580078 276.2578125 62.00878906 C219.98167075 30.52241063 146.51274887 37.38132343 98 80 Z " fill="#40819D" transform="translate(0,0)"/>
<path d="M0 0 C28.40029098 -0.09376065 56.80055851 -0.16413393 85.20097351 -0.20724869 C98.39005735 -0.22780655 111.5790446 -0.25579652 124.76806641 -0.30175781 C136.27390933 -0.34183416 147.77968224 -0.36748194 159.28559303 -0.37635398 C165.36854353 -0.38153373 171.45129384 -0.39356421 177.53417969 -0.42292023 C183.27975859 -0.45041922 189.02505817 -0.45837662 194.77069664 -0.45243073 C196.86018081 -0.45351576 198.94967604 -0.46126134 201.03910255 -0.4768219 C252.1759276 -0.83841501 300.97284382 18.78424427 338 54 C338.55413574 54.52158691 339.10827148 55.04317383 339.67919922 55.58056641 C371.91010831 86.09642041 392.8239141 126.99538796 399 171 C399.1743457 172.22468994 399.34869141 173.44937988 399.52832031 174.71118164 C400.07555692 179.16073801 400.17911296 183.56754897 400.203125 188.046875 C400.20882507 188.89815979 400.21452515 189.74944458 400.22039795 190.62652588 C400.22979769 192.42499573 400.2363618 194.22348241 400.24023438 196.02197266 C400.24982522 198.70117646 400.28084829 201.37957313 400.3125 204.05859375 C400.41232954 220.18436186 398.53110906 235.90839838 394.3125 251.5 C394.05686279 252.45374512 393.80122559 253.40749023 393.5378418 254.39013672 C379.81550812 303.74145659 346.1666724 347.30053802 301.80859375 372.87890625 C254.67482404 399.41518216 199.48892378 407.95557614 146.87109375 393.44140625 C105.60943605 381.47294718 68.49004645 358.20345432 42 324 C41.5654248 323.44183594 41.13084961 322.88367188 40.68310547 322.30859375 C33.50024075 313.02062659 27.38035007 303.43396789 22 293 C21.62101562 292.26797363 21.24203125 291.53594727 20.8515625 290.78173828 C8.25069469 266.12441936 -0.21808328 238.4345375 -0.12025452 210.56565857 C-0.12110894 209.65958723 -0.12196337 208.75351588 -0.12284368 207.81998783 C-0.12448054 204.80762426 -0.1190067 201.79531736 -0.11352539 198.78295898 C-0.11324311 196.61417136 -0.11340206 194.44538364 -0.1139679 192.27659607 C-0.11425425 186.40540703 -0.10838357 180.53423851 -0.10139394 174.66305423 C-0.09513356 168.52114386 -0.09455448 162.37923301 -0.09336853 156.23731995 C-0.09026313 144.61409468 -0.0820604 132.99087884 -0.07201904 121.36765772 C-0.06083334 108.13191007 -0.05534126 94.89616196 -0.05032361 81.66041076 C-0.03987713 54.44026862 -0.022293 27.22013484 0 0 Z M162 16 C160.97938477 16.26345215 159.95876953 16.5269043 158.90722656 16.79833984 C144.3869993 20.64634606 130.4023436 25.18355932 117 32 C116.27586914 32.36287109 115.55173828 32.72574219 114.80566406 33.09960938 C96.11650012 42.58707486 79.75629615 55.17105747 65 70 C64.10023437 70.89976563 63.20046875 71.79953125 62.2734375 72.7265625 C45.93897029 89.89071693 33.89011646 111.17833462 25 133 C24.52820312 134.14597656 24.05640625 135.29195313 23.5703125 136.47265625 C6.63097022 180.60963816 9.47555865 231.90802432 28 275 C30.4524634 280.44760477 33.15368906 285.74894721 36 291 C36.56460938 292.04542969 37.12921875 293.09085937 37.7109375 294.16796875 C49.40677108 314.95141011 65.2468747 333.32058731 84 348 C84.82781982 348.6504126 84.82781982 348.6504126 85.67236328 349.31396484 C112.21834942 369.99730836 142.13420155 381.0803466 175 387 C175.92377441 387.18175781 176.84754883 387.36351562 177.79931641 387.55078125 C181.79645916 388.11178374 185.70672613 388.1814548 189.73828125 388.203125 C190.57731491 388.20882507 191.41634857 388.21452515 192.2808075 388.22039795 C194.05673985 388.22981743 195.83268945 388.23636976 197.60864258 388.24023438 C200.26611957 388.24983249 202.92278582 388.28083907 205.58007812 388.3125 C216.72719832 388.38188257 227.11017575 387.35741882 238 385 C238.94335205 384.80647949 239.8867041 384.61295898 240.85864258 384.41357422 C276.75356872 376.77237937 307.62607454 359.14636617 334 334 C335.16982422 332.90945313 335.16982422 332.90945313 336.36328125 331.796875 C347.02325666 321.57238704 355.28670412 309.51705775 363 297 C363.54269531 296.16210938 364.08539063 295.32421875 364.64453125 294.4609375 C369.34143283 287.04999517 372.74986193 279.12031919 376 271 C376.33322266 270.17902832 376.66644531 269.35805664 377.00976562 268.51220703 C385.89347133 246.22347458 389.45031994 223.44733081 389.4375 199.5625 C389.43790283 198.84050415 389.43830566 198.1185083 389.4387207 197.37463379 C389.27897016 149.19331777 369.93749769 104.73408848 337 70 C336.55575684 69.52852539 336.11151367 69.05705078 335.65380859 68.57128906 C324.4874209 56.79582568 312.0013808 47.22492526 298 39 C297.21463867 38.53835449 296.42927734 38.07670898 295.62011719 37.60107422 C256.94931999 15.29213126 206.04605592 4.53679907 162 16 Z " fill="#405B72" transform="translate(0,0)"/>
<path d="M0 0 C7.59 0 15.18 0 23 0 C27.48594274 11.21485685 27.48594274 11.21485685 28.74609375 15.18359375 C29.02380615 16.04380127 29.30151855 16.90400879 29.58764648 17.7902832 C29.86809814 18.66386475 30.1485498 19.53744629 30.4375 20.4375 C32.86330382 27.87238857 35.45065979 35.01581442 39 42 C39.32613281 41.0821875 39.65226562 40.164375 39.98828125 39.21875 C40.42527344 37.9915625 40.86226562 36.764375 41.3125 35.5 C41.74175781 34.2934375 42.17101562 33.086875 42.61328125 31.84375 C43.5307199 29.28211739 44.4742058 26.73222098 45.4375 24.1875 C47.270782 19.32081912 48.97779832 14.41116594 50.6875 9.5 C52.3271875 4.7975 52.3271875 4.7975 54 0 C61.92 0 69.84 0 78 0 C78 22.77 78 45.54 78 69 C72.72 69 67.44 69 62 69 C61.67 53.16 61.34 37.32 61 21 C59.35 26.28 57.7 31.56 56 37 C53.921875 42.2734375 53.921875 42.2734375 52.95117188 44.60449219 C51.12993638 49.19123827 49.71517326 53.91506535 48.25 58.625 C47.77626953 60.13126953 47.77626953 60.13126953 47.29296875 61.66796875 C46.52519155 64.11089622 45.76209728 66.55529467 45 69 C40.71 69 36.42 69 32 69 C30.36294415 63.96909482 28.72726598 58.93774442 27.09277344 53.90600586 C26.53844934 52.20015856 25.98377182 50.49442606 25.42871094 48.78881836 C24.62338031 46.31395303 23.81939209 43.83865475 23.015625 41.36328125 C22.77378479 40.62104813 22.53194458 39.878815 22.28277588 39.11408997 C20.11468651 32.42960273 18.0675098 25.71940685 16 19 C15.67 35.5 15.34 52 15 69 C10.05 69 5.1 69 0 69 C0 46.23 0 23.46 0 0 Z " fill="#40819E" transform="translate(193,189)"/>
<path d="M0 0 C1.65644203 1.53026249 3.30172899 3.0726609 4.9375 4.625 C5.4104248 5.07069336 5.88334961 5.51638672 6.37060547 5.97558594 C39.99457743 37.85982098 60.87097678 83.86944091 62.2109375 130.203125 C62.89398495 165.26862695 57.33606782 198.67915138 39.9375 229.625 C39.56012695 230.31352051 39.18275391 231.00204102 38.79394531 231.71142578 C30.37212201 247.02038305 19.95778734 260.01000579 7.9375 272.625 C7.21175781 273.40359375 6.48601562 274.1821875 5.73828125 274.984375 C-24.44401616 306.44983847 -71.71015579 326.9667035 -115.1328125 327.99609375 C-118.48459691 328.04831197 -121.83533762 328.06301341 -125.1875 328.0625 C-126.06390137 328.06389984 -126.94030273 328.06529968 -127.84326172 328.06674194 C-143.37586362 328.04643258 -157.97240096 326.53592832 -173.0625 322.625 C-173.85430664 322.42213379 -174.64611328 322.21926758 -175.46191406 322.01025391 C-222.51740268 309.52124728 -263.32295251 277.55521213 -288.1640625 235.984375 C-304.75416187 206.62740903 -314.31339061 174.37987912 -314.25 140.5625 C-314.24873108 139.86848083 -314.24746216 139.17446167 -314.24615479 138.45941162 C-314.21102949 128.39470821 -314.1012728 118.52601395 -312.0625 108.625 C-311.87945312 107.72185059 -311.69640625 106.81870117 -311.5078125 105.88818359 C-300.81993777 54.6672037 -272.05336513 10.4396574 -228.0625 -18.375 C-222.22298165 -22.01749664 -216.2045005 -25.27482966 -210.0625 -28.375 C-209.36785645 -28.72900879 -208.67321289 -29.08301758 -207.95751953 -29.44775391 C-194.3078023 -36.28062857 -179.80638548 -40.56915018 -165.0625 -44.375 C-163.84868652 -44.69090088 -163.84868652 -44.69090088 -162.61035156 -45.01318359 C-106.02640161 -58.8592787 -42.57583661 -37.61884128 0 0 Z M-249.796875 2.546875 C-251.8642788 4.44318331 -253.98000093 6.25529606 -256.125 8.0625 C-281.46560892 30.37435088 -298.79025612 64.59812548 -306.75 97 C-307.05393677 98.21961426 -307.05393677 98.21961426 -307.36401367 99.46386719 C-310.49403867 112.81968516 -311.44811721 126.20288347 -311.375 139.875 C-311.37317719 140.59078217 -311.37135437 141.30656433 -311.36947632 142.04403687 C-311.3193781 153.79166159 -310.5534107 165.12415147 -308.0625 176.625 C-307.89621094 177.43114746 -307.72992188 178.23729492 -307.55859375 179.06787109 C-302.04444744 205.27538312 -290.57668025 230.51159366 -274.0625 251.625 C-273.31226563 252.58535156 -272.56203125 253.54570312 -271.7890625 254.53515625 C-264.2594655 263.92733777 -256.40167766 272.99646379 -247.0625 280.625 C-246.5459082 281.05925293 -246.02931641 281.49350586 -245.49707031 281.94091797 C-224.65387246 299.45458758 -200.56118584 311.78321808 -174.31665039 318.99584961 C-172.72973097 319.4387708 -171.14853931 319.90247635 -169.57202148 320.38110352 C-162.18913427 322.55396859 -154.89634886 323.54828272 -147.25 324.3125 C-146.08146484 324.44205078 -144.91292969 324.57160156 -143.70898438 324.70507812 C-95.84892044 329.6943512 -47.7073615 315.00600197 -10.15283203 285.10449219 C17.89688376 262.2980566 38.72135742 233.02378115 50.23974609 198.69824219 C50.8421174 196.90841113 51.47489414 195.12886616 52.11328125 193.3515625 C66.6306786 150.64014635 61.25856684 100.74623415 42.10327148 60.42211914 C32.50377246 40.94761763 19.87394105 24.26659492 4.9375 8.625 C4.33550781 7.97015625 3.73351562 7.3153125 3.11328125 6.640625 C-16.04491216 -13.62748894 -42.89398262 -27.77357084 -69.0625 -36.375 C-69.78147461 -36.61589355 -70.50044922 -36.85678711 -71.24121094 -37.10498047 C-132.37821725 -57.33888632 -202.7601485 -40.84829848 -249.796875 2.546875 Z " fill="#F0F2F5" transform="translate(327.0625,60.375)"/>
<path d="M0 0 C0.9215538 0.00222061 1.8431076 0.00444122 2.79258728 0.00672913 C4.37601929 0.0069104 4.37601929 0.0069104 5.99143982 0.00709534 C7.66792603 0.01476929 7.66792603 0.01476929 9.37828064 0.02259827 C10.91010986 0.02410889 10.91010986 0.02410889 12.47288513 0.02565002 C16.3046429 0.03090037 20.13638472 0.04486149 23.96812439 0.05775452 C32.52749939 0.07837952 41.08687439 0.09900452 49.90562439 0.12025452 C49.90562439 17.61025452 49.90562439 35.10025452 49.90562439 53.12025452 C41.34624939 53.14087952 32.78687439 53.16150452 23.96812439 53.18275452 C19.90963196 53.19641052 19.90963196 53.19641052 15.76914978 53.21034241 C13.63886057 53.21326137 11.50857081 53.21580997 9.37828064 53.21791077 C8.26062317 53.22302673 7.1429657 53.2281427 5.99143982 53.2334137 C4.93581848 53.23353455 3.88019714 53.2336554 2.79258728 53.23377991 C1.41025658 53.23711082 1.41025658 53.23711082 0 53.24050903 C-2.09437561 53.12025452 -2.09437561 53.12025452 -3.09437561 52.12025452 C-3.19291984 50.52962142 -3.22236255 48.93463974 -3.22377014 47.34095764 C-3.2269223 46.32320251 -3.23007446 45.30544739 -3.23332214 44.2568512 C-3.23129791 43.14958679 -3.22927368 42.04232239 -3.22718811 40.90150452 C-3.22814484 39.77329285 -3.22910156 38.64508118 -3.23008728 37.48268127 C-3.23076929 35.09185226 -3.22891358 32.7010214 -3.2247467 30.31019592 C-3.21939877 26.63616301 -3.22469104 22.96225235 -3.23109436 19.28822327 C-3.23043358 16.97181674 -3.22915243 14.6554103 -3.22718811 12.33900452 C-3.23022446 10.67810791 -3.23022446 10.67810791 -3.23332214 8.98365784 C-3.23016998 7.96590271 -3.22701782 6.94814758 -3.22377014 5.89955139 C-3.22297455 4.99877869 -3.22217896 4.09800598 -3.22135925 3.16993713 C-3.04753777 0.36423033 -2.80713825 0.16117981 0 0 Z " fill="#FCFDFD" transform="translate(10.094375610351563,7.8797454833984375)"/>
<path d="M0 0 C39.23076923 0 39.23076923 0 46.0625 5.4375 C46.701875 6.283125 47.34125 7.12875 48 8 C48.5775 8.680625 49.155 9.36125 49.75 10.0625 C52.77923446 14.75781341 52.66278258 20.6129648 52 26 C49.95712375 32.59639014 47.00830114 36.79736115 40.96484375 40.16015625 C37.35534531 41.70298362 34.14773197 42.12274187 30.234375 42.09765625 C29.43225586 42.09515869 28.63013672 42.09266113 27.80371094 42.09008789 C26.79598633 42.08098389 25.78826172 42.07187988 24.75 42.0625 C21.5325 42.041875 18.315 42.02125 15 42 C15 50.91 15 59.82 15 69 C10.05 69 5.1 69 0 69 C0 46.23 0 23.46 0 0 Z " fill="#3D7F9C" transform="translate(76,189)"/>
<path d="M0 0 C-1.44424635 3.23861303 -3.25772247 5.61969163 -5.625 8.25 C-6.25664062 8.95640625 -6.88828125 9.6628125 -7.5390625 10.390625 C-8.02117187 10.92171875 -8.50328125 11.4528125 -9 12 C-9.54527344 11.77183594 -10.09054688 11.54367188 -10.65234375 11.30859375 C-16.33601795 9.14199658 -21.04963267 8.41084567 -27 10 C-27.99 10.66 -28.98 11.32 -30 12 C-30.75060849 14.91382729 -30.75060849 14.91382729 -30 18 C-25.57547669 22.29810835 -19.86355731 23.30704797 -14.0625 25.0078125 C-10.47652976 26.16959367 -7.87468461 27.55651808 -5 30 C-4.05125 30.763125 -3.1025 31.52625 -2.125 32.3125 C1.27571284 36.62963871 0.67005527 42.1329357 0.48046875 47.359375 C-0.40051746 54.03481523 -3.2006628 57.82517924 -8.4375 61.875 C-13.75267206 65.53798605 -19.41150244 66.39016931 -25.75 66.375 C-26.80344604 66.37258301 -26.80344604 66.37258301 -27.87817383 66.37011719 C-36.13956048 66.17655765 -42.88593077 63.70646461 -49 58 C-47.53033642 54.60140297 -45.61962486 52.35036291 -43 49.75 C-42.29875 49.04359375 -41.5975 48.3371875 -40.875 47.609375 C-39 46 -39 46 -37 46 C-37 46.66 -37 47.32 -37 48 C-30.96836941 50.52387379 -25.42703991 52.03910102 -19 50 C-16.76803293 48.18304721 -16.09323729 47.40402825 -15.4375 44.5625 C-15.77029496 41.74472014 -15.77029496 41.74472014 -18.5390625 40.01953125 C-22.13338969 37.75225839 -25.92800192 36.46779025 -29.9375 35.125 C-36.59203747 32.76341932 -42.25096378 30.4624766 -46.140625 24.1484375 C-48.06344754 19.34138114 -47.75405659 13.64145572 -46.34765625 8.71484375 C-43.42155255 2.19704195 -38.68645801 -1.56082607 -32.5 -4.875 C-21.29163069 -8.51662972 -9.612267 -6.408178 0 0 Z " fill="#40819D" transform="translate(181,194)"/>
<path d="M0 0 C0.9215538 0.00222061 1.8431076 0.00444122 2.79258728 0.00672913 C4.37601929 0.0069104 4.37601929 0.0069104 5.99143982 0.00709534 C7.66792603 0.01476929 7.66792603 0.01476929 9.37828064 0.02259827 C10.91010986 0.02410889 10.91010986 0.02410889 12.47288513 0.02565002 C16.3046429 0.03090037 20.13638472 0.04486149 23.96812439 0.05775452 C32.52749939 0.07837952 41.08687439 0.09900452 49.90562439 0.12025452 C49.90562439 17.61025452 49.90562439 35.10025452 49.90562439 53.12025452 C41.34624939 53.14087952 32.78687439 53.16150452 23.96812439 53.18275452 C19.90963196 53.19641052 19.90963196 53.19641052 15.76914978 53.21034241 C13.63886057 53.21326137 11.50857081 53.21580997 9.37828064 53.21791077 C8.26062317 53.22302673 7.1429657 53.2281427 5.99143982 53.2334137 C4.93581848 53.23353455 3.88019714 53.2336554 2.79258728 53.23377991 C1.41025658 53.23711082 1.41025658 53.23711082 0 53.24050903 C-2.09437561 53.12025452 -2.09437561 53.12025452 -3.09437561 52.12025452 C-3.19291984 50.52962142 -3.22236255 48.93463974 -3.22377014 47.34095764 C-3.2269223 46.32320251 -3.23007446 45.30544739 -3.23332214 44.2568512 C-3.23129791 43.14958679 -3.22927368 42.04232239 -3.22718811 40.90150452 C-3.22814484 39.77329285 -3.22910156 38.64508118 -3.23008728 37.48268127 C-3.23076929 35.09185226 -3.22891358 32.7010214 -3.2247467 30.31019592 C-3.21939877 26.63616301 -3.22469104 22.96225235 -3.23109436 19.28822327 C-3.23043358 16.97181674 -3.22915243 14.6554103 -3.22718811 12.33900452 C-3.23022446 10.67810791 -3.23022446 10.67810791 -3.23332214 8.98365784 C-3.23016998 7.96590271 -3.22701782 6.94814758 -3.22377014 5.89955139 C-3.22297455 4.99877869 -3.22217896 4.09800598 -3.22135925 3.16993713 C-3.04753777 0.36423033 -2.80713825 0.16117981 0 0 Z M4.90562439 6.12025452 C4.90562439 19.65025452 4.90562439 33.18025452 4.90562439 47.12025452 C17.77562439 47.12025452 30.64562439 47.12025452 43.90562439 47.12025452 C43.90562439 33.59025452 43.90562439 20.06025452 43.90562439 6.12025452 C31.03562439 6.12025452 18.16562439 6.12025452 4.90562439 6.12025452 Z " fill="#8CAFC1" transform="translate(10.094375610351563,7.8797454833984375)"/>
<path d="M0 0 C4.95 0 9.9 0 15 0 C15 22.77 15 45.54 15 69 C10.05 69 5.1 69 0 69 C0 46.23 0 23.46 0 0 Z " fill="#3D7F9C" transform="translate(313,189)"/>
<path d="M0 0 C1.65572416 0.95094545 3.26157317 1.98776967 4.85546875 3.0390625 C4.52546875 3.6990625 4.19546875 4.3590625 3.85546875 5.0390625 C0.92157696 4.63157753 -0.8154643 4.30642939 -3.14453125 2.4140625 C-5.0843055 0.78251367 -5.0843055 0.78251367 -7.64453125 1.1640625 C-10.3950672 2.12675008 -12.08016785 2.9746991 -14.14453125 5.0390625 C-14.87418491 7.60188992 -14.87418491 7.60188992 -15.14453125 10.0390625 C-15.47453125 10.3690625 -15.80453125 10.6990625 -16.14453125 11.0390625 C-16.60784562 16.91552281 -16.60784562 16.91552281 -14.14453125 22.0390625 C-13.15453125 22.3690625 -12.16453125 22.6990625 -11.14453125 23.0390625 C-11.04140625 22.2759375 -10.93828125 21.5128125 -10.83203125 20.7265625 C-10.10089086 17.86846826 -9.37501212 16.88163365 -7.14453125 15.0390625 C-7.47453125 16.3590625 -7.80453125 17.6790625 -8.14453125 19.0390625 C-7.48453125 19.0390625 -6.82453125 19.0390625 -6.14453125 19.0390625 C-6.80453125 21.0190625 -7.46453125 22.9990625 -8.14453125 25.0390625 C-3.89217345 24.78892381 -1.66888344 24.47019652 1.66796875 21.7265625 C3.472023 19.510153 4.78494664 17.66670767 5.85546875 15.0390625 C6.18546875 15.0390625 6.51546875 15.0390625 6.85546875 15.0390625 C7.3055023 18.11429173 7.32741396 20.25725427 5.6953125 22.9609375 C3.30339237 25.92177981 1.75983041 27.77780246 -1.95703125 28.8515625 C-2.67890625 28.9134375 -3.40078125 28.9753125 -4.14453125 29.0390625 C-4.47453125 29.6990625 -4.80453125 30.3590625 -5.14453125 31.0390625 C-6.46453125 30.7090625 -7.78453125 30.3790625 -9.14453125 30.0390625 C-7.7898483 34.91592111 -5.42777216 36.52498631 -1.14453125 39.0390625 C-1.14453125 38.3790625 -1.14453125 37.7190625 -1.14453125 37.0390625 C-0.31953125 37.3690625 0.50546875 37.6990625 1.35546875 38.0390625 C6.4664618 39.49934623 10.83995055 40.09063721 15.73046875 37.5390625 C16.43171875 37.0440625 17.13296875 36.5490625 17.85546875 36.0390625 C18.51546875 36.0390625 19.17546875 36.0390625 19.85546875 36.0390625 C21.40692754 30.02715968 21.97859927 24.28532354 19.16796875 18.6640625 C14.53815697 13.40860047 10.5842738 12.60930022 3.85546875 12.0390625 C3.85546875 11.0490625 3.85546875 10.0590625 3.85546875 9.0390625 C9.75279138 7.9513341 13.670843 7.5040904 18.85546875 11.0390625 C24.5700835 16.08918716 27.33416172 20.69483725 28.23046875 28.1640625 C27.61101092 34.56512676 24.9032703 39.93875322 20.41796875 44.5390625 C14.14018124 48.21386494 8.02645556 48.88586064 0.85546875 48.0390625 C-4.18339992 45.66223765 -8.07787115 41.67913971 -11.14453125 37.0390625 C-12.59031438 31.93062877 -12.59031438 31.93062877 -11.14453125 29.0390625 C-12.47484375 28.7296875 -12.47484375 28.7296875 -13.83203125 28.4140625 C-18.12903429 26.63040086 -19.45776567 24.80053432 -22.14453125 21.0390625 C-23.59319066 16.69308427 -24.03346178 12.43531003 -22.42578125 8.1015625 C-17.53039002 -1.05755658 -9.50148944 -4.257498 0 0 Z " fill="#4E657B" transform="translate(116.14453125,98.9609375)"/>
<path d="M0 0 C0 0.66 0 1.32 0 2 C0.721875 2.28875 1.44375 2.5775 2.1875 2.875 C4.00144034 3.60057614 5.81404854 4.32949584 7.625 5.0625 C9.3964928 5.76177347 11.19322023 6.39774008 13 7 C13 7.66 13 8.32 13 9 C11.35 9.33 9.7 9.66 8 10 C9.32 10.66 10.64 11.32 12 12 C12.125 14.875 12.125 14.875 12 18 C11.34 18.66 10.68 19.32 10 20 C9.67 18.68 9.34 17.36 9 16 C8.5875 16.928125 8.175 17.85625 7.75 18.8125 C6.00775412 21.98587642 5.19646106 23.40176947 2 25 C-1.75 25.1875 -1.75 25.1875 -5 25 C-4.34 23.02 -3.68 21.04 -3 19 C-3.66 19 -4.32 19 -5 19 C-5 18.01 -5 17.02 -5 16 C-5.99 18.31 -6.98 20.62 -8 23 C-9.875 22.6875 -9.875 22.6875 -12 22 C-14.47119394 18.29320908 -14.44358763 15.29671153 -14 11 C-13.0625 8.6875 -13.0625 8.6875 -12 7 C-11.67 6.01 -11.34 5.02 -11 4 C-7.28119778 1.04186187 -4.80814227 -0.5656638 0 0 Z " fill="#F2F5F8" transform="translate(113,99)"/>
<path d="M0 0 C1.65572416 0.95094545 3.26157317 1.98776967 4.85546875 3.0390625 C4.52546875 3.6990625 4.19546875 4.3590625 3.85546875 5.0390625 C0.92157696 4.63157753 -0.8154643 4.30642939 -3.14453125 2.4140625 C-5.0843055 0.78251367 -5.0843055 0.78251367 -7.64453125 1.1640625 C-10.3950672 2.12675008 -12.08016785 2.9746991 -14.14453125 5.0390625 C-14.87418491 7.60188992 -14.87418491 7.60188992 -15.14453125 10.0390625 C-15.47453125 10.3690625 -15.80453125 10.6990625 -16.14453125 11.0390625 C-16.60784562 16.91552281 -16.60784562 16.91552281 -14.14453125 22.0390625 C-13.15453125 22.3690625 -12.16453125 22.6990625 -11.14453125 23.0390625 C-11.04140625 22.2759375 -10.93828125 21.5128125 -10.83203125 20.7265625 C-10.10089086 17.86846826 -9.37501212 16.88163365 -7.14453125 15.0390625 C-7.47453125 16.3590625 -7.80453125 17.6790625 -8.14453125 19.0390625 C-7.48453125 19.0390625 -6.82453125 19.0390625 -6.14453125 19.0390625 C-6.80453125 21.0190625 -7.46453125 22.9990625 -8.14453125 25.0390625 C-3.89217345 24.78892381 -1.66888344 24.47019652 1.66796875 21.7265625 C3.472023 19.510153 4.78494664 17.66670767 5.85546875 15.0390625 C6.18546875 15.0390625 6.51546875 15.0390625 6.85546875 15.0390625 C7.31343332 18.16848707 7.36105891 20.27131448 5.58984375 22.9609375 C0.54742327 28.88455767 0.54742327 28.88455767 -3.75390625 29.27734375 C-14.28349032 29.5261772 -14.28349032 29.5261772 -19.14453125 25.0390625 C-22.64308077 21.05795442 -23.50394286 17.4790521 -23.42578125 12.1640625 C-22.78323921 7.3093004 -20.13351022 3.95567715 -16.58203125 0.6640625 C-11.36871084 -2.81148444 -5.64483416 -2.52937924 0 0 Z " fill="#329FBA" transform="translate(116.14453125,98.9609375)"/>
<path d="M0 0 C15.26785714 -0.66964286 15.26785714 -0.66964286 18.9375 2.125 C21 5 21 5 21.625 8.0625 C20.87539823 11.58562834 19.78875524 12.78540025 17 15 C13.93618406 16.53190797 10.73034134 16.10243613 7.375 16.0625 C4.94125 16.041875 2.5075 16.02125 0 16 C0 10.72 0 5.44 0 0 Z " fill="#FAFBFC" transform="translate(91,202)"/>
<path d="M0 0 C5.33333333 0 10.66666667 0 16 0 C16.99 -0.061875 17.98 -0.12375 19 -0.1875 C22 0 22 0 23.67578125 1.09375 C25.64955101 3.93504688 25.28878045 6.27772487 25.1875 9.6875 C25.16042969 10.86699219 25.13335937 12.04648438 25.10546875 13.26171875 C25.07066406 14.16535156 25.03585938 15.06898438 25 16 C23.35 16 21.7 16 20 16 C19.67 12.37 19.34 8.74 19 5 C18.34 5 17.68 5 17 5 C16.67 8.63 16.34 12.26 16 16 C14.02 16 12.04 16 10 16 C9.67 12.37 9.34 8.74 9 5 C8.34 5 7.68 5 7 5 C6.67 8.63 6.34 12.26 6 16 C4.02 16 2.04 16 0 16 C0 10.72 0 5.44 0 0 Z " fill="#546A7F" transform="translate(220,122)"/>
<path d="M0 0 C1.76923828 0.04060547 1.76923828 0.04060547 3.57421875 0.08203125 C4.47785156 0.11683594 5.38148438 0.15164062 6.3125 0.1875 C6.36657567 2.77111518 6.406207 5.35359255 6.4375 7.9375 C6.45425781 8.66710937 6.47101563 9.39671875 6.48828125 10.1484375 C6.55177361 17.13259693 6.55177361 17.13259693 4.3125 20.1875 C1.31511059 22.18575961 0.67902492 22.46300398 -2.6875 22.4375 C-3.7084375 22.44523437 -3.7084375 22.44523437 -4.75 22.453125 C-6.6875 22.1875 -6.6875 22.1875 -9.6875 20.1875 C-9.3575 19.1975 -9.0275 18.2075 -8.6875 17.1875 C-6.66927083 17.48046875 -4.65104167 17.7734375 -2.6328125 18.06640625 C-0.60609333 18.3559297 -0.60609333 18.3559297 1.3125 17.1875 C1.6425 16.1975 1.9725 15.2075 2.3125 14.1875 C1.3225 14.6825 1.3225 14.6825 0.3125 15.1875 C-3.71941305 15.72508841 -5.2494036 15.4950996 -8.625 13.125 C-10.6875 10.1875 -10.6875 10.1875 -10.6875 6.5625 C-8.80446375 0.20725266 -6.43116373 -0.19102467 0 0 Z " fill="#586D82" transform="translate(298.6875,122.8125)"/>
<path d="M0 0 C2 1.5 2 1.5 3 3 C2.01 4.485 2.01 4.485 1 6 C-2.625 6.1875 -2.625 6.1875 -6 6 C-6.33 6.99 -6.66 7.98 -7 9 C-6.36191406 9.19335938 -5.72382813 9.38671875 -5.06640625 9.5859375 C-4.24011719 9.84632812 -3.41382813 10.10671875 -2.5625 10.375 C-1.73878906 10.63023438 -0.91507813 10.88546875 -0.06640625 11.1484375 C2 12 2 12 3 14 C3.45693563 19.36899365 3.45693563 19.36899365 1.6875 21.8125 C-2.0180958 24.42014149 -5.62220801 24.23452457 -10 24 C-10.99 23.34 -11.98 22.68 -13 22 C-12.34 20.35 -11.68 18.7 -11 17 C-8.03 17.33 -5.06 17.66 -2 18 C-2 17.01 -2 16.02 -2 15 C-2.62648437 14.80664062 -3.25296875 14.61328125 -3.8984375 14.4140625 C-4.71570313 14.15367187 -5.53296875 13.89328125 -6.375 13.625 C-7.59316406 13.24214844 -7.59316406 13.24214844 -8.8359375 12.8515625 C-11 12 -11 12 -13 10 C-12.86895515 6.39626668 -12.74035058 3.91803472 -10.4375 1.0625 C-6.72271629 -0.55676469 -4.0510756 -0.38581672 0 0 Z " fill="#4B6379" transform="translate(168,115)"/>
<path d="M0 0 C2.64 0 5.28 0 8 0 C8 8.91 8 17.82 8 27 C7.34 27 6.68 27 6 27 C5.67 26.34 5.34 25.68 5 25 C3.35 25.66 1.7 26.32 0 27 C0 18.09 0 9.18 0 0 Z " fill="#93B5C6" transform="translate(40,22)"/>
<path d="M0 0 C4.40324127 0.78629308 5.87468349 2.04502294 8.5 5.625 C9.125 8.125 9.125 8.125 8.5 10.625 C5.87468349 14.20497706 4.40324127 15.46370692 0 16.25 C-4.40324127 15.46370692 -5.87468349 14.20497706 -8.5 10.625 C-9.125 8.125 -9.125 8.125 -8.5 5.625 C-5.87468349 2.04502294 -4.40324127 0.78629308 0 0 Z " fill="#586D82" transform="translate(265.5,122.375)"/>
<path d="M0 0 C2.4375 1.625 2.4375 1.625 4 4 C4.5625 6.9375 4.5625 6.9375 4 10 C1.9375 12.9375 1.9375 12.9375 -1 15 C-4.54361243 15 -6.86591591 14.65850044 -9.9375 12.875 C-11.6712306 9.81547541 -11.42145216 7.43182475 -11 4 C-8.11188513 -0.5054592 -5.11821063 -0.73117295 0 0 Z " fill="#EEF1F5" transform="translate(139,35)"/>
<path d="M0 0 C3.05623277 2.09110663 3.86463014 3.29306849 4.5625 6.9375 C3.80598648 11.05629585 2.30729372 12.50115585 -1 15 C-3.5 15.625 -3.5 15.625 -6 15 C-8.875 12.9375 -8.875 12.9375 -11 10 C-11.06641554 6.14789873 -10.87229157 4.00151995 -8.3125 1.0625 C-5.26397123 -0.33817538 -3.32073048 -0.4842732 0 0 Z " fill="#EDF1F4" transform="translate(79,76)"/>
<path d="M0 0 C1.65 0 3.3 0 5 0 C5.33 3.63 5.66 7.26 6 11 C6.99 11 7.98 11 9 11 C9.33 7.37 9.66 3.74 10 0 C11.65 0 13.3 0 15 0 C15 5.28 15 10.56 15 16 C12.66666667 16 10.33333333 16 8 16 C7.01 16.04125 6.02 16.0825 5 16.125 C2 16 2 16 0 14 C-0.1953125 10.7421875 -0.1953125 10.7421875 -0.125 6.875 C-0.10695312 5.59367187 -0.08890625 4.31234375 -0.0703125 2.9921875 C-0.04710937 2.00476563 -0.02390625 1.01734375 0 0 Z " fill="#4C6479" transform="translate(203,122)"/>
<path d="M0 0 C1.32 0.33 2.64 0.66 4 1 C4.33 3.64 4.66 6.28 5 9 C5.7425 8.319375 6.485 7.63875 7.25 6.9375 C10 5 10 5 12.3125 5.25 C12.869375 5.4975 13.42625 5.745 14 6 C13.39254603 10.85963179 11.27241033 14.7405518 9 19 C8.01 18.67 7.02 18.34 6 18 C6.66 16.02 7.32 14.04 8 12 C6.64082319 11.88397569 6.64082319 11.88397569 4.9375 14 C4.298125 14.66 3.65875 15.32 3 16 C2.01 15.67 1.02 15.34 0 15 C0 12.69 0 10.38 0 8 C-1.485 10.475 -1.485 10.475 -3 13 C-3.99 12.67 -4.98 12.34 -6 12 C-4.43358249 7.69235185 -2.31663844 3.93828536 0 0 Z " fill="#E9EDF2" transform="translate(276,40)"/>
<path d="M0 0 C1.65 0.33 3.3 0.66 5 1 C5 3.97 5 6.94 5 10 C5.66 10 6.32 10 7 10 C7.37125 9.071875 7.37125 9.071875 7.75 8.125 C9.21956837 5.62673377 10.28564404 4.93305986 13 4 C13.66 4.33 14.32 4.66 15 5 C14.71517632 6.41805831 14.42181856 7.83440379 14.125 9.25 C13.96257812 10.03890625 13.80015625 10.8278125 13.6328125 11.640625 C13.00849925 13.96831144 12.15161458 15.89031952 11 18 C10.01 18 9.02 18 8 18 C8.66 15.36 9.32 12.72 10 10 C9.236875 10.99 8.47375 11.98 7.6875 13 C6.38671875 14.6875 6.38671875 14.6875 5 16 C4.01 16 3.02 16 2 16 C1.67 13.36 1.34 10.72 1 8 C0.34 9.98 -0.32 11.96 -1 14 C-1.99 14 -2.98 14 -4 14 C-3.46148032 8.72250715 -2.22656164 4.74354436 0 0 Z " fill="#F4F7F9" transform="translate(251,29)"/>
<path d="M0 0 C0 1.32 0 2.64 0 4 C-2.33317216 4.77772405 -4.61435923 5.42415568 -7 6 C-6.67 7.65 -6.34 9.3 -6 11 C-4.35 11 -2.7 11 -1 11 C-0.34 12.32 0.32 13.64 1 15 C0 16 0 16 -3.75 16.375 C-7.2414117 16.32476386 -7.97700674 16.0162869 -11 13.875 C-13 11 -13 11 -13.625 8 C-11.98500176 0.12800842 -6.93701725 -0.58788282 0 0 Z " fill="#4E657B" transform="translate(186,122)"/>
<path d="M0 0 C3.96 0 7.92 0 12 0 C12 1.65 12 3.3 12 5 C10.02 5 8.04 5 6 5 C6 8.63 6 12.26 6 16 C4.02 16 2.04 16 0 16 C0 10.72 0 5.44 0 0 Z " fill="#5B7084" transform="translate(189,122)"/>
<path d="M0 0 C3.25830729 2.17220486 4.79292769 3.30975898 5.9375 7.125 C5.958125 8.07375 5.97875 9.0225 6 10 C4 12 4 12 1.375 12.125 C0.59125 12.08375 -0.1925 12.0425 -1 12 C-1.33 13.65 -1.66 15.3 -2 17 C-2.66 17 -3.32 17 -4 17 C-4 14.36 -4 11.72 -4 9 C-5.65 9.66 -7.3 10.32 -9 11 C-8.46324097 7.14896699 -6.88399077 5.68202413 -3.9375 3.25 C-3.20402344 2.63640625 -2.47054688 2.0228125 -1.71484375 1.390625 C-1.14894531 0.93171875 -0.58304687 0.4728125 0 0 Z " fill="#DEE7ED" transform="translate(335,84)"/>
<path d="M0 0 C0.66 0.33 1.32 0.66 2 1 C2.62669199 3.16467461 3.15427374 5.35864524 3.625 7.5625 C3.88539063 8.76003906 4.14578125 9.95757812 4.4140625 11.19140625 C4.60742188 12.11824219 4.80078125 13.04507813 5 14 C3.234375 14.71484375 3.234375 14.71484375 1 15 C-0.921875 13.56640625 -0.921875 13.56640625 -2.75 11.5625 C-3.36359375 10.90378906 -3.9771875 10.24507812 -4.609375 9.56640625 C-5.06828125 9.04949219 -5.5271875 8.53257813 -6 8 C-6 11.11227195 -5.54372951 13.94152152 -5 17 C-5.99 17 -6.98 17 -8 17 C-8.50692692 15.4188708 -9.00526443 13.83498617 -9.5 12.25 C-9.7784375 11.36828125 -10.056875 10.4865625 -10.34375 9.578125 C-11 7 -11 7 -11 3 C-5.96014269 3.44469329 -3.62365012 5.71343362 0 9 C-0.185625 7.700625 -0.37125 6.40125 -0.5625 5.0625 C-0.87890625 2.84765625 -0.87890625 2.84765625 -1 1 C-0.67 0.67 -0.34 0.34 0 0 Z " fill="#F2F4F7" transform="translate(155,28)"/>
<path d="M0 0 C1.67542976 0.28604898 3.34385343 0.61781233 5 1 C5.33 2.65 5.66 4.3 6 6 C8.97 6.495 8.97 6.495 12 7 C12 7.66 12 8.32 12 9 C9.36 9 6.72 9 4 9 C4 9.66 4 10.32 4 11 C5.32 11.66 6.64 12.32 8 13 C7.67 13.66 7.34 14.32 7 15 C2.01987239 13.49087042 -1.24259942 10.44338151 -5 7 C-1.125 1.125 -1.125 1.125 0 0 Z " fill="#DEE7ED" transform="translate(62,88)"/>
<path d="M0 0 C6.625 -0.25 6.625 -0.25 10 2 C10.1875 4.625 10.1875 4.625 10 7 C9.01 7.33 8.02 7.66 7 8 C7.66 9.98 8.32 11.96 9 14 C7.68 13.67 6.36 13.34 5 13 C4.67 11.35 4.34 9.7 4 8 C3.34 8 2.68 8 2 8 C1.67 9.65 1.34 11.3 1 13 C0.34 13 -0.32 13 -1 13 C-1.07654536 8.48382401 -1.10228696 4.40914783 0 0 Z " fill="#E0E9EE" transform="translate(221,24)"/>
<path d="M0 0 C0.66 0.33 1.32 0.66 2 1 C-1.90155741 6.82061614 -6.38588405 11.30152078 -11.66796875 15.88671875 C-13.61983582 17.65549611 -15.25376952 19.37457205 -16.875 21.4375 C-18.91328555 23.89543258 -20.10534466 24.84213786 -23 26 C-23.99 26.66 -24.98 27.32 -26 28 C-24.35264708 23.97852082 -21.55241968 21.06493837 -18.625 17.9375 C-18.10131836 17.37329346 -17.57763672 16.80908691 -17.03808594 16.2277832 C-11.64900432 10.49767125 -5.88807288 5.20948292 0 0 Z " fill="#EAECF0" transform="translate(81,55)"/>
<path d="M0 0 C0.20674944 5.78898419 -0.40837921 10.42932723 -2 16 C-2.99 15.34 -3.98 14.68 -5 14 C-5 12.68 -5 11.36 -5 10 C-8.58327753 8.99782936 -8.58327753 8.99782936 -12 10 C-12.66 9.67 -13.32 9.34 -14 9 C-14 8.34 -14 7.68 -14 7 C-11.69921875 5.2734375 -11.69921875 5.2734375 -8.6875 3.375 C-7.70136719 2.74335937 -6.71523438 2.11171875 -5.69921875 1.4609375 C-3 0 -3 0 0 0 Z " fill="#F3F5F8" transform="translate(300,52)"/>
<path d="M0 0 C3.125 0.375 3.125 0.375 6 1 C6.25 6.625 6.25 6.625 4 10 C5.32 10.66 6.64 11.32 8 12 C7.67 12.66 7.34 13.32 7 14 C2.32894208 12.44298069 -1.08705685 9.91552627 -5 7 C-3.47793991 4.37098712 -2.15634036 2.15634036 0 0 Z " fill="#DEE7ED" transform="translate(54,99)"/>
<path d="M0 0 C2.88437779 1.29299694 4.87219421 2.65941363 7 5 C6.67 5.99 6.34 6.98 6 8 C4.68 7.01 3.36 6.02 2 5 C1.01 5.495 1.01 5.495 0 6 C0.99 6.99 1.98 7.98 3 9 C2.67 9.99 2.34 10.98 2 12 C0.68 11.01 -0.64 10.02 -2 9 C-2.99 9.495 -2.99 9.495 -4 10 C-3.2575 10.6496875 -3.2575 10.6496875 -2.5 11.3125 C-1 13 -1 13 -1 16 C-4.36179774 14.55922954 -6.59156268 12.75249979 -9 10 C-9 9.34 -9 8.68 -9 8 C-7.28515625 6.30859375 -7.28515625 6.30859375 -5.0625 4.4375 C-3.96615234 3.50744141 -3.96615234 3.50744141 -2.84765625 2.55859375 C-2.23792969 2.04425781 -1.62820313 1.52992187 -1 1 C-0.67 0.67 -0.34 0.34 0 0 Z " fill="#F1F4F7" transform="translate(326,75)"/>
<path d="M0 0 C0.66 0.33 1.32 0.66 2 1 C1 4 1 4 -1 5 C-1.33 5.99 -1.66 6.98 -2 8 C-0.02 7.01 1.96 6.02 4 5 C4.33 5.99 4.66 6.98 5 8 C3.68 9.32 2.36 10.64 1 12 C3.31 11.01 5.62 10.02 8 9 C8 10.32 8 11.64 8 13 C3.77777778 17 3.77777778 17 1 17 C-0.76171875 15.171875 -0.76171875 15.171875 -2.6875 12.75 C-3.33074219 11.96109375 -3.97398438 11.1721875 -4.63671875 10.359375 C-6 8 -6 8 -5.8671875 5.84375 C-4.56992547 3.08560731 -2.43496062 1.74817686 0 0 Z " fill="#EFF2F5" transform="translate(95,57)"/>
<path d="M0 0 C1.765625 0.15234375 1.765625 0.15234375 4 1 C5.921875 3.50390625 5.921875 3.50390625 7.75 6.5625 C8.67039063 8.08037109 8.67039063 8.08037109 9.609375 9.62890625 C10.06828125 10.41136719 10.5271875 11.19382812 11 12 C9.68 12 8.36 12 7 12 C7 11.34 7 10.68 7 10 C4.69 10.33 2.38 10.66 0 11 C-0.33 12.32 -0.66 13.64 -1 15 C-1.66 15 -2.32 15 -3 15 C-2.69052329 13.06201479 -2.37731166 11.12462574 -2.0625 9.1875 C-1.88847656 8.10855469 -1.71445313 7.02960937 -1.53515625 5.91796875 C-1 3 -1 3 0 0 Z " fill="#E2EAEF" transform="translate(165,26)"/>
<path d="M0 0 C0.99 0 1.98 0 3 0 C3 3.63 3 7.26 3 11 C4.32 10.67 5.64 10.34 7 10 C7.66 7.36 8.32 4.72 9 2 C9.99 2 10.98 2 12 2 C11.40164922 6.18845544 10.5586679 10.05748707 9 14 C6.21136993 15.39431504 4.07921132 15.25660094 1 15 C-1.48570024 11.27144964 -1.30344304 8.30889122 -1 4 C-0.5 1.5 -0.5 1.5 0 0 Z " fill="#EEF2F5" transform="translate(235,26)"/>
<path d="M0 0 C1.875 1.5 1.875 1.5 3 3 C0.3260876 3.89130413 -2.23723823 4.47731534 -5 5 C-5 6.65 -5 8.3 -5 10 C-4.4225 10.144375 -3.845 10.28875 -3.25 10.4375 C-0.125 11.21875 -0.125 11.21875 3 12 C1.26107595 14.19653565 0.36248966 14.93493775 -2.4375 15.4375 C-5 15 -5 15 -7.3125 13.5 C-9.83210805 9.76724733 -9.49582992 7.4624693 -9 3 C-6.89283346 -0.74607384 -4.00604938 -0.50075617 0 0 Z " fill="#EBEFF3" transform="translate(215,22)"/>
<path d="M0 0 C0 3 0 3 -1.5 4.6875 C-1.995 5.120625 -2.49 5.55375 -3 6 C-1.88625 5.95875 -0.7725 5.9175 0.375 5.875 C4 6 4 6 6 8 C5.67028521 11.29714793 5.3773161 12.6226839 3 15 C1.68 15 0.36 15 -1 15 C-1 13 -1 13 1 10.875 C1.66 10.25625 2.32 9.6375 3 9 C1.72125 9.20625 0.4425 9.4125 -0.875 9.625 C-3.0546875 9.9765625 -3.0546875 9.9765625 -5 10 C-5.66 9.34 -6.32 8.68 -7 8 C-6.78167414 5.1617638 -6.35334968 3.46577913 -4.625 1.1875 C-3 0 -3 0 0 0 Z " fill="#DFE6EC" transform="translate(107,50)"/>
<path d="M0 0 C4.62 0 9.24 0 14 0 C14 1.98 14 3.96 14 6 C9.38 6 4.76 6 0 6 C0 4.02 0 2.04 0 0 Z " fill="#9ABACA" transform="translate(20,31)"/>
<path d="M0 0 C0 0.99 0 1.98 0 3 C-0.99 3.33 -1.98 3.66 -3 4 C-3.33 4.99 -3.66 5.98 -4 7 C-2.88625 6.79375 -1.7725 6.5875 -0.625 6.375 C0.57125 6.25125 1.7675 6.1275 3 6 C3.66 6.66 4.32 7.32 5 8 C4.8125 11 4.8125 11 4 14 C1 16 1 16 -3 16 C-1.88820837 12.66462511 -0.52588702 11.36292656 2 9 C0.700625 9.020625 -0.59875 9.04125 -1.9375 9.0625 C-3.29165633 9.08399454 -4.64756083 9.07148199 -6 9 C-7 8 -7 8 -7.3125 5.625 C-7 3 -7 3 -5.1875 1.1875 C-3 0 -3 0 0 0 Z " fill="#EFF3F6" transform="translate(118,44)"/>
<path d="M0 0 C5.28 0 10.56 0 16 0 C16 1.65 16 3.3 16 5 C10.72 5 5.44 5 0 5 C0 3.35 0 1.7 0 0 Z " fill="#9CBBCA" transform="translate(20,38)"/>
<path d="M0 0 C2.9375 0.1875 2.9375 0.1875 6 1 C7.375 3.0625 7.375 3.0625 8 5 C5.61435923 4.42415568 3.33317216 3.77772405 1 3 C1.33 3.556875 1.66 4.11375 2 4.6875 C3.15249005 7.35263324 3.30274405 9.12393149 3 12 C2.34 12.66 1.68 13.32 1 14 C-1.87687481 13.77870194 -3.53951144 13.36521506 -5.8125 11.5625 C-7 10 -7 10 -7 8 C-4.03824877 8.61277612 -2.61941217 9.25372522 0 11 C-0.5259375 9.9171875 -0.5259375 9.9171875 -1.0625 8.8125 C-2.10994191 5.67017428 -1.9554164 4.12681731 -1 1 C-0.67 0.67 -0.34 0.34 0 0 Z " fill="#F2F4F7" transform="translate(306,59)"/>
<path d="M0 0 C1.134375 0.020625 2.26875 0.04125 3.4375 0.0625 C3.4375 1.0525 3.4375 2.0425 3.4375 3.0625 C1.7875 2.7325 0.1375 2.4025 -1.5625 2.0625 C-0.31703595 5.79889216 1.07154953 6.25006513 4.4375 8.0625 C4.1075 9.7125 3.7775 11.3625 3.4375 13.0625 C0.0625 13.6875 0.0625 13.6875 -3.5625 14.0625 C-4.2225 13.4025 -4.8825 12.7425 -5.5625 12.0625 C-2.5625 10.0625 -2.5625 10.0625 -0.375 10.4375 C0.223125 10.64375 0.82125 10.85 1.4375 11.0625 C1.4375 10.0725 1.4375 9.0825 1.4375 8.0625 C0.261875 7.8459375 0.261875 7.8459375 -0.9375 7.625 C-3.5625 7.0625 -3.5625 7.0625 -5.5625 6.0625 C-4.48849278 0.07874549 -4.48849278 0.07874549 0 0 Z " fill="#F5F7F9" transform="translate(198.5625,22.9375)"/>
<path d="M0 0 C0.66 0.33 1.32 0.66 2 1 C1 3 0 5 -1 7 C0.98 6.34 2.96 5.68 5 5 C4.835 5.5775 4.67 6.155 4.5 6.75 C3.74126854 10.16429157 3.89810487 12.69431461 5 16 C1.14896699 15.46324097 -0.31797587 13.88399077 -2.75 10.9375 C-3.36359375 10.20402344 -3.9771875 9.47054687 -4.609375 8.71484375 C-5.06828125 8.14894531 -5.5271875 7.58304687 -6 7 C-4.02 4.69 -2.04 2.38 0 0 Z " fill="#F1F4F7" transform="translate(85,64)"/>
<path d="M0 0 C2.31 0 4.62 0 7 0 C6.67 0.66 6.34 1.32 6 2 C4.68 1.67 3.36 1.34 2 1 C3.07401108 3.91517292 3.77810176 5.77810176 6 8 C8.33333333 10.33333333 10.66666667 12.66666667 13 15 C12.01 15 11.02 15 10 15 C9.34 15.66 8.68 16.32 8 17 C6.86874978 15.92319498 5.74525081 14.83824365 4.625 13.75 C3.99851562 13.14671875 3.37203125 12.5434375 2.7265625 11.921875 C0.99174411 9.99081019 -0.07784565 8.42065518 -1 6 C-0.625 2.75 -0.625 2.75 0 0 Z " fill="#95A1B1" transform="translate(105,128)"/>
<path d="M0 0 C0.33 0 0.66 0 1 0 C1 2.97 1 5.94 1 9 C1.66 9.33 2.32 9.66 3 10 C2.01 10 1.02 10 0 10 C0 6.7 0 3.4 0 0 Z M7 3 C9.125 3.375 9.125 3.375 11 4 C10.71517632 5.41805831 10.42181856 6.83440379 10.125 8.25 C9.96257812 9.03890625 9.80015625 9.8278125 9.6328125 10.640625 C9.00849925 12.96831144 8.15161458 14.89031952 7 17 C6.01 17 5.02 17 4 17 C4.66 14.36 5.32 11.72 6 9 C5.01 9 4.02 9 3 9 C4.15173355 6.53199953 5.04783565 4.95216435 7 3 Z " fill="#EBEFF3" transform="translate(255,30)"/>
<path d="M0 0 C2.93453261 0.36681658 3.86437246 0.86437246 6 3 C6.25 5.5 6.25 5.5 6 8 C5.34 8.66 4.68 9.32 4 10 C0.70285207 9.67028521 -0.6226839 9.3773161 -3 7 C-2.67028521 3.70285207 -2.3773161 2.3773161 0 0 Z " fill="#4A86A1" transform="translate(74,78)"/>
<path d="M0 0 C5.56818182 0.56818182 5.56818182 0.56818182 7 2 C7.25 4.4375 7.25 4.4375 7 7 C4 9 4 9 1.375 8.6875 C-1 8 -1 8 -2 7 C-2.1875 4.5625 -2.1875 4.5625 -2 2 C-1.34 1.34 -0.68 0.68 0 0 Z " fill="#FCFCFC" transform="translate(294,126)"/>
<path d="M0 0 C0.99 0 1.98 0 3 0 C4.20272819 2.40545638 4.10071472 3.94996953 4.0625 6.625 C4.05347656 7.44226563 4.04445312 8.25953125 4.03515625 9.1015625 C4.02355469 9.72804688 4.01195312 10.35453125 4 11 C5.98 11 7.96 11 10 11 C10 11.99 10 12.98 10 14 C3.84765625 14.87890625 3.84765625 14.87890625 2 15 C0.05909174 13.05909174 0.60080565 9.52706098 0.4375 6.9375 C0.35371094 5.64714844 0.26992187 4.35679688 0.18359375 3.02734375 C0.12300781 2.02832031 0.06242188 1.02929688 0 0 Z " fill="#E0E7ED" transform="translate(176,23)"/>
<path d="M0 0 C2.375 0.6875 2.375 0.6875 3.375 1.6875 C3.625 4.125 3.625 4.125 3.375 6.6875 C0.375 8.6875 0.375 8.6875 -2.25 8.375 C-4.625 7.6875 -4.625 7.6875 -5.625 6.6875 C-5.875 4.25 -5.875 4.25 -5.625 1.6875 C-2.625 -0.3125 -2.625 -0.3125 0 0 Z " fill="#FEFEFE" transform="translate(266.625,126.3125)"/>
<path d="M0 0 C1.32 0.33 2.64 0.66 4 1 C6.68149993 0.61432869 6.68149993 0.61432869 9 0 C9 0.99 9 1.98 9 3 C7.35 3.66 5.7 4.32 4 5 C3.67 8.3 3.34 11.6 3 15 C2.01 15 1.02 15 0 15 C0 10.05 0 5.1 0 0 Z " fill="#485F76" transform="translate(277,123)"/>
<path d="M0 0 C2.5625 0.1875 2.5625 0.1875 4.5625 2.1875 C4.23278521 5.48464793 3.9398161 6.8101839 1.5625 9.1875 C-1.37203261 8.82068342 -2.30187246 8.32312754 -4.4375 6.1875 C-3.71780303 0.28598485 -3.71780303 0.28598485 0 0 Z " fill="#4784A0" transform="translate(135.4375,37.8125)"/>
<path d="M0 0 C2.64 1.98 5.28 3.96 8 6 C7.67 6.99 7.34 7.98 7 9 C5.68 8.67 4.36 8.34 3 8 C1.02 10.31 -0.96 12.62 -3 15 C-3.66 14.67 -4.32 14.34 -5 14 C-4.58072372 11.06506604 -4.12075992 10.11010463 -1.875 8.0625 C-1.25625 7.381875 -0.6375 6.70125 0 6 C-0.23043864 3.34533951 -0.23043864 3.34533951 -1 1 C-0.67 0.67 -0.34 0.34 0 0 Z " fill="#F1F4F7" transform="translate(316,65)"/>
<path d="M0 0 C4.95 0 9.9 0 15 0 C15 1.32 15 2.64 15 4 C10.05 4 5.1 4 0 4 C0 2.68 0 1.36 0 0 Z " fill="#8DB2C3" transform="translate(20,45)"/>
<path d="M0 0 C6.41923331 0.29112169 10.62100206 1.45215029 16 5 C15.67 5.66 15.34 6.32 15 7 C12.06610821 6.59251503 10.32906695 6.26736689 8 4.375 C6.04204532 2.722692 6.04204532 2.722692 3.375 3.1875 C0.84979635 3.85676551 0.84979635 3.85676551 -1 6 C-3.125 5.625 -3.125 5.625 -5 5 C-4.175 4.360625 -3.35 3.72125 -2.5 3.0625 C-1.675 2.381875 -0.85 1.70125 0 1 C0 0.67 0 0.34 0 0 Z " fill="#B0D0DF" transform="translate(105,97)"/>
<path d="M0 0 C3.96 0 7.92 0 12 0 C12 1.32 12 2.64 12 4 C8.04 4 4.08 4 0 4 C0 2.68 0 1.36 0 0 Z " fill="#8EB2C4" transform="translate(20,22)"/>
<path d="M0 0 C0.99 0.33 1.98 0.66 3 1 C2.39254603 5.85963179 0.27241033 9.7405518 -2 14 C-2.99 13.67 -3.98 13.34 -5 13 C-3.94124926 9.59687262 -2.99097846 6.98646769 -1 4 C-1 3.01 -1 2.02 -1 1 C-0.67 0.67 -0.34 0.34 0 0 Z " fill="#F2F4F7" transform="translate(287,45)"/>
<path d="M0 0 C0.66 0.99 1.32 1.98 2 3 C0.4050992 4.19991599 -1.20126147 5.38461318 -2.8125 6.5625 C-3.70582031 7.22378906 -4.59914063 7.88507813 -5.51953125 8.56640625 C-6.33808594 9.03949219 -7.15664063 9.51257813 -8 10 C-8.99 9.67 -9.98 9.34 -11 9 C-7.56638098 5.36440339 -4.2026393 2.63886654 0 0 Z " fill="#F1F4F7" transform="translate(348,100)"/>
<path d="M0 0 C1.134375 0.020625 2.26875 0.04125 3.4375 0.0625 C3.4375 1.0525 3.4375 2.0425 3.4375 3.0625 C1.7875 2.7325 0.1375 2.4025 -1.5625 2.0625 C-1.2325 4.0425 -0.9025 6.0225 -0.5625 8.0625 C-3.0375 7.0725 -3.0375 7.0725 -5.5625 6.0625 C-4.48849278 0.07874549 -4.48849278 0.07874549 0 0 Z " fill="#EAEEF2" transform="translate(198.5625,22.9375)"/>
<path d="M0 0 C0 0.66 0 1.32 0 2 C-1.72681437 2.50806447 -3.45657979 3.00610467 -5.1875 3.5 C-6.63189453 3.91765625 -6.63189453 3.91765625 -8.10546875 4.34375 C-10.85345876 4.96677608 -13.19598416 5.12302812 -16 5 C-13.51196416 1.99748896 -11.16518552 1.22287132 -7.4375 0.25 C-6.46683594 -0.01296875 -5.49617187 -0.2759375 -4.49609375 -0.546875 C-2 -1 -2 -1 0 0 Z " fill="#F9FAFB" transform="translate(161,18)"/>
<path d="M0 0 C0.33 0.66 0.66 1.32 1 2 C0.67 2.66 0.34 3.32 0 4 C0.66 4 1.32 4 2 4 C1.34 5.98 0.68 7.96 0 10 C1.65 10 3.3 10 5 10 C5 10.33 5 10.66 5 11 C-0.41538462 11.36923077 -0.41538462 11.36923077 -3.375 9.5 C-3.91125 9.005 -4.4475 8.51 -5 8 C-4.34 8 -3.68 8 -3 8 C-2.87625 7.236875 -2.7525 6.47375 -2.625 5.6875 C-2 3 -2 3 0 0 Z " fill="#AFBBC7" transform="translate(108,114)"/>
<path d="M0 0 C3 1 3 1 4.38671875 3.50390625 C4.81597656 4.51324219 5.24523437 5.52257813 5.6875 6.5625 C6.12449219 7.57441406 6.56148438 8.58632813 7.01171875 9.62890625 C7.33785156 10.41136719 7.66398438 11.19382812 8 12 C7.01 12.33 6.02 12.66 5 13 C4.15930585 11.39967863 3.32768495 9.79458829 2.5 8.1875 C1.80390625 6.84751953 1.80390625 6.84751953 1.09375 5.48046875 C0 3 0 3 0 0 Z " fill="#F6F8FA" transform="translate(121,41)"/>
<path d="M0 0 C1.65 0.33 3.3 0.66 5 1 C5.6875 3.3125 5.6875 3.3125 6 6 C4.8125 7.8125 4.8125 7.8125 3 9 C1.68 9 0.36 9 -1 9 C-1 8.34 -1 7.68 -1 7 C-0.01 6.34 0.98 5.68 2 5 C2 4.34 2 3.68 2 3 C1.34 2.67 0.68 2.34 0 2 C0 1.34 0 0.68 0 0 Z " fill="#F5F7F9" transform="translate(107,56)"/>
<path d="M0 0 C0.26554687 0.57492188 0.53109375 1.14984375 0.8046875 1.7421875 C2.44697273 4.84428183 4.58971991 7.44629558 6.7578125 10.1953125 C8 12 8 12 8 14 C4.17982999 12.49921893 2.24629201 10.40816719 0 7 C-0.8125 3.75 -0.8125 3.75 -1 1 C-0.67 0.67 -0.34 0.34 0 0 Z " fill="#4E657A" transform="translate(105,129)"/>
<path d="M0 0 C0.33 0 0.66 0 1 0 C1 1.65 1 3.3 1 5 C1.66 5.33 2.32 5.66 3 6 C2.01 6.33 1.02 6.66 0 7 C-0.73323796 9.01508358 -0.73323796 9.01508358 -1 11 C-1.66 11 -2.32 11 -3 11 C-2.69217504 9.35328588 -2.37860766 7.70764424 -2.0625 6.0625 C-1.88847656 5.14597656 -1.71445313 4.22945312 -1.53515625 3.28515625 C-1 1 -1 1 0 0 Z " fill="#F7F9FA" transform="translate(165,30)"/>
<path d="M0 0 C0.99 0 1.98 0 3 0 C3 2.64 3 5.28 3 8 C2.34 7.01 1.68 6.02 1 5 C0.67 5.99 0.34 6.98 0 8 C-1.32 7.34 -2.64 6.68 -4 6 C-3.01 5.67 -2.02 5.34 -1 5 C-0.67 3.35 -0.34 1.7 0 0 Z " fill="#BFD1DC" transform="translate(297,52)"/>
<path d="M0 0 C2.31 0 4.62 0 7 0 C7 1.32 7 2.64 7 4 C4.69 4 2.38 4 0 4 C0 2.68 0 1.36 0 0 Z " fill="#7A8698" transform="translate(306,119)"/>
<path d="M0 0 C2.31 0.33 4.62 0.66 7 1 C6.4225 1.268125 5.845 1.53625 5.25 1.8125 C2.93836756 2.93012871 2.93836756 2.93012871 1 4.6875 C-1 6 -1 6 -3.25 5.6875 C-3.8275 5.460625 -4.405 5.23375 -5 5 C-4.175 4.360625 -3.35 3.72125 -2.5 3.0625 C-1.675 2.381875 -0.85 1.70125 0 1 C0 0.67 0 0.34 0 0 Z " fill="#8ABDD0" transform="translate(105,97)"/>
<path d="M0 0 C-0.33 3.3 -0.66 6.6 -1 10 C-1.99 9.34 -2.98 8.68 -4 8 C-3.74438677 5.6568787 -3.40729228 3.32156597 -3 1 C-1 0 -1 0 0 0 Z " fill="#E6EAEE" transform="translate(23,146)"/>
<path d="M0 0 C-0.66 0.66 -1.32 1.32 -2 2 C-2 2.33 -2 2.66 -2 3 C-4.31 3 -6.62 3 -9 3 C-9 2.01 -9 1.02 -9 0 C-3.375 -1.125 -3.375 -1.125 0 0 Z " fill="#717F92" transform="translate(129,108)"/>
<path d="M0 0 C0 0.99 0 1.98 0 3 C-0.99 3.33 -1.98 3.66 -3 4 C-3.99 5.485 -3.99 5.485 -5 7 C-5.66 5.68 -6.32 4.36 -7 3 C-3.375 0 -3.375 0 0 0 Z " fill="#E4E9EF" transform="translate(118,44)"/>
<path d="M0 0 C-1 2 -1 2 -2.84765625 2.6328125 C-3.57855469 2.79523438 -4.30945313 2.95765625 -5.0625 3.125 C-5.79597656 3.29257812 -6.52945313 3.46015625 -7.28515625 3.6328125 C-7.85105469 3.75398438 -8.41695312 3.87515625 -9 4 C-8.67 3.01 -8.34 2.02 -8 1 C-2.59770115 -1.29885057 -2.59770115 -1.29885057 0 0 Z " fill="#F9F9FB" transform="translate(251,380)"/>
<path d="M0 0 C0.99 0 1.98 0 3 0 C3 1.65 3 3.3 3 5 C0.03 4.505 0.03 4.505 -3 4 C-1.6875 2 -1.6875 2 0 0 Z " fill="#52687E" transform="translate(198,122)"/>
<path d="M0 0 C2.8992226 0.46761655 3.86675182 0.86675182 6 3 C3.69 3.33 1.38 3.66 -1 4 C-1 1 -1 1 0 0 Z " fill="#E1E5EB" transform="translate(162,16)"/>
</svg>
